<mxfile host="Electron" modified="2024-04-04T21:53:29.317Z" agent="Mozilla/5.0 (Macintosh; Intel Mac OS X 10_15_7) AppleWebKit/537.36 (KHTML, like Gecko) draw.io/24.1.0 Chrome/120.0.6099.109 Electron/28.1.0 Safari/537.36" etag="QfygEGobzcWi8uqojLpj" version="24.1.0" type="device">
  <diagram name="Page-1" id="8zVWjbwOrn1wCTXo0VQt">
    <mxGraphModel dx="1257" dy="646" grid="1" gridSize="10" guides="1" tooltips="1" connect="1" arrows="1" fold="1" page="1" pageScale="1" pageWidth="1169" pageHeight="827" math="0" shadow="0">
      <root>
        <mxCell id="0" />
        <mxCell id="1" parent="0" />
        <mxCell id="yhQ8anbsgu2emEQSJ7JV-3" value="" style="rounded=1;whiteSpace=wrap;html=1;fillColor=#2B50B3;" vertex="1" parent="1">
          <mxGeometry x="360" y="60" width="210" height="100" as="geometry" />
        </mxCell>
        <mxCell id="yhQ8anbsgu2emEQSJ7JV-25" style="edgeStyle=orthogonalEdgeStyle;rounded=0;orthogonalLoop=1;jettySize=auto;html=1;entryX=1;entryY=0.5;entryDx=0;entryDy=0;" edge="1" parent="1" source="yhQ8anbsgu2emEQSJ7JV-5" target="yhQ8anbsgu2emEQSJ7JV-3">
          <mxGeometry relative="1" as="geometry" />
        </mxCell>
        <mxCell id="yhQ8anbsgu2emEQSJ7JV-5" value="" style="rounded=1;whiteSpace=wrap;html=1;fillColor=#2B50B3;" vertex="1" parent="1">
          <mxGeometry x="820" y="60" width="210" height="100" as="geometry" />
        </mxCell>
        <mxCell id="yhQ8anbsgu2emEQSJ7JV-6" style="edgeStyle=orthogonalEdgeStyle;rounded=0;orthogonalLoop=1;jettySize=auto;html=1;entryX=0.5;entryY=0;entryDx=0;entryDy=0;" edge="1" parent="1" source="yhQ8anbsgu2emEQSJ7JV-7" target="yhQ8anbsgu2emEQSJ7JV-8">
          <mxGeometry relative="1" as="geometry">
            <mxPoint x="615" y="460" as="targetPoint" />
            <Array as="points">
              <mxPoint x="620" y="400" />
              <mxPoint x="620" y="400" />
            </Array>
          </mxGeometry>
        </mxCell>
        <mxCell id="yhQ8anbsgu2emEQSJ7JV-7" value="" style="rounded=0;whiteSpace=wrap;html=1;fillColor=#A9C4EB;" vertex="1" parent="1">
          <mxGeometry x="490" y="250" width="250" height="130" as="geometry" />
        </mxCell>
        <mxCell id="yhQ8anbsgu2emEQSJ7JV-8" value="" style="rounded=0;whiteSpace=wrap;html=1;fillColor=#A9C4EB;" vertex="1" parent="1">
          <mxGeometry x="490" y="470" width="260" height="150" as="geometry" />
        </mxCell>
        <mxCell id="yhQ8anbsgu2emEQSJ7JV-9" value="" style="shape=cylinder3;whiteSpace=wrap;html=1;boundedLbl=1;backgroundOutline=1;size=15;fillColor=#2708E3;" vertex="1" parent="1">
          <mxGeometry x="140" y="410" width="160" height="200" as="geometry" />
        </mxCell>
        <mxCell id="yhQ8anbsgu2emEQSJ7JV-10" value="" style="endArrow=none;html=1;rounded=0;" edge="1" parent="1">
          <mxGeometry width="50" height="50" relative="1" as="geometry">
            <mxPoint x="80" y="200" as="sourcePoint" />
            <mxPoint x="920" y="200" as="targetPoint" />
          </mxGeometry>
        </mxCell>
        <mxCell id="yhQ8anbsgu2emEQSJ7JV-11" value="" style="endArrow=none;html=1;rounded=0;" edge="1" parent="1">
          <mxGeometry width="50" height="50" relative="1" as="geometry">
            <mxPoint x="80" y="640" as="sourcePoint" />
            <mxPoint x="80" y="200" as="targetPoint" />
          </mxGeometry>
        </mxCell>
        <mxCell id="yhQ8anbsgu2emEQSJ7JV-12" value="" style="endArrow=none;html=1;rounded=0;" edge="1" parent="1">
          <mxGeometry width="50" height="50" relative="1" as="geometry">
            <mxPoint x="80" y="640" as="sourcePoint" />
            <mxPoint x="920" y="640" as="targetPoint" />
          </mxGeometry>
        </mxCell>
        <mxCell id="yhQ8anbsgu2emEQSJ7JV-13" value="" style="endArrow=none;html=1;rounded=0;" edge="1" parent="1">
          <mxGeometry width="50" height="50" relative="1" as="geometry">
            <mxPoint x="920" y="640" as="sourcePoint" />
            <mxPoint x="920" y="200" as="targetPoint" />
            <Array as="points">
              <mxPoint x="920" y="420" />
            </Array>
          </mxGeometry>
        </mxCell>
        <mxCell id="yhQ8anbsgu2emEQSJ7JV-14" style="edgeStyle=orthogonalEdgeStyle;rounded=0;orthogonalLoop=1;jettySize=auto;html=1;entryX=0.412;entryY=-0.015;entryDx=0;entryDy=0;entryPerimeter=0;" edge="1" parent="1" source="yhQ8anbsgu2emEQSJ7JV-3" target="yhQ8anbsgu2emEQSJ7JV-7">
          <mxGeometry relative="1" as="geometry">
            <Array as="points">
              <mxPoint x="465" y="220" />
              <mxPoint x="593" y="220" />
            </Array>
          </mxGeometry>
        </mxCell>
        <mxCell id="yhQ8anbsgu2emEQSJ7JV-15" style="edgeStyle=orthogonalEdgeStyle;rounded=0;orthogonalLoop=1;jettySize=auto;html=1;entryX=1.006;entryY=0.628;entryDx=0;entryDy=0;entryPerimeter=0;" edge="1" parent="1" source="yhQ8anbsgu2emEQSJ7JV-8" target="yhQ8anbsgu2emEQSJ7JV-9">
          <mxGeometry relative="1" as="geometry" />
        </mxCell>
        <mxCell id="yhQ8anbsgu2emEQSJ7JV-17" value="&lt;div&gt;&lt;font style=&quot;font-size: 18px;&quot;&gt;Secretary&lt;/font&gt;&lt;/div&gt;&lt;div&gt;&lt;font style=&quot;font-size: 18px;&quot;&gt;[Person]&lt;/font&gt;&lt;/div&gt;&lt;div&gt;&lt;font style=&quot;font-size: 18px;&quot;&gt;a customer of the website&lt;/font&gt;&lt;/div&gt;" style="text;html=1;align=center;verticalAlign=middle;whiteSpace=wrap;rounded=0;" vertex="1" parent="1">
          <mxGeometry x="370" y="70" width="190" height="80" as="geometry" />
        </mxCell>
        <mxCell id="yhQ8anbsgu2emEQSJ7JV-18" value="&lt;div&gt;&lt;font style=&quot;font-size: 18px;&quot;&gt;SIOUX Client&lt;/font&gt;&lt;/div&gt;&lt;div&gt;&lt;font style=&quot;font-size: 18px;&quot;&gt;[Person]&lt;/font&gt;&lt;/div&gt;&lt;div&gt;&lt;br&gt;&lt;/div&gt;" style="text;html=1;align=center;verticalAlign=middle;whiteSpace=wrap;rounded=0;" vertex="1" parent="1">
          <mxGeometry x="830" y="70" width="190" height="80" as="geometry" />
        </mxCell>
        <mxCell id="yhQ8anbsgu2emEQSJ7JV-19" value="&lt;font size=&quot;3&quot;&gt;Web Application&lt;/font&gt;&lt;div&gt;&lt;font size=&quot;3&quot;&gt;[Container: JS + React]&lt;/font&gt;&lt;/div&gt;&lt;div&gt;&lt;font size=&quot;3&quot;&gt;&lt;br&gt;&lt;/font&gt;&lt;/div&gt;&lt;div&gt;&lt;font size=&quot;3&quot;&gt;Delivers the static content and the FTicket single-page app&lt;/font&gt;&lt;/div&gt;" style="text;html=1;align=center;verticalAlign=middle;whiteSpace=wrap;rounded=0;" vertex="1" parent="1">
          <mxGeometry x="500" y="260" width="230" height="110" as="geometry" />
        </mxCell>
        <mxCell id="yhQ8anbsgu2emEQSJ7JV-20" value="&lt;font style=&quot;font-size: 18px;&quot;&gt;API Application&lt;/font&gt;&lt;div&gt;&lt;font style=&quot;font-size: 18px;&quot;&gt;[Container: Java + Spring]&lt;/font&gt;&lt;/div&gt;&lt;div&gt;&lt;font style=&quot;font-size: 18px;&quot;&gt;&lt;br&gt;&lt;/font&gt;&lt;/div&gt;&lt;div&gt;&lt;font style=&quot;font-size: 18px;&quot;&gt;The back-end providing HTTP/JSON responses and requests&lt;/font&gt;&lt;/div&gt;" style="text;html=1;align=center;verticalAlign=middle;whiteSpace=wrap;rounded=0;" vertex="1" parent="1">
          <mxGeometry x="500" y="480" width="240" height="130" as="geometry" />
        </mxCell>
        <mxCell id="yhQ8anbsgu2emEQSJ7JV-21" value="&lt;font style=&quot;font-size: 18px;&quot;&gt;DataBase&lt;/font&gt;&lt;div&gt;&lt;font style=&quot;font-size: 14px;&quot;&gt;[Container: MySQL]&lt;/font&gt;&lt;/div&gt;&lt;div&gt;&lt;font style=&quot;font-size: 14px;&quot;&gt;&lt;br&gt;&lt;/font&gt;&lt;/div&gt;&lt;div&gt;&lt;font style=&quot;font-size: 14px;&quot;&gt;Stores all of the info and content of the applicaiton&lt;/font&gt;&lt;/div&gt;" style="text;html=1;align=center;verticalAlign=middle;whiteSpace=wrap;rounded=0;" vertex="1" parent="1">
          <mxGeometry x="150" y="460" width="140" height="130" as="geometry" />
        </mxCell>
        <mxCell id="yhQ8anbsgu2emEQSJ7JV-22" value="Reads from and writes to" style="text;html=1;align=center;verticalAlign=middle;whiteSpace=wrap;rounded=0;" vertex="1" parent="1">
          <mxGeometry x="330" y="510" width="140" height="30" as="geometry" />
        </mxCell>
        <mxCell id="yhQ8anbsgu2emEQSJ7JV-23" value="Makes API calls to&lt;div&gt;[HTTP/JSON]&lt;/div&gt;" style="text;html=1;align=center;verticalAlign=middle;whiteSpace=wrap;rounded=0;" vertex="1" parent="1">
          <mxGeometry x="610" y="398" width="130" height="30" as="geometry" />
        </mxCell>
        <mxCell id="yhQ8anbsgu2emEQSJ7JV-24" value="&lt;div&gt;SIOUX Parking Sistem&lt;/div&gt;&lt;div&gt;[Software Sistem]&lt;/div&gt;" style="text;html=1;align=center;verticalAlign=middle;whiteSpace=wrap;rounded=0;" vertex="1" parent="1">
          <mxGeometry x="790" y="560" width="130" height="80" as="geometry" />
        </mxCell>
        <mxCell id="yhQ8anbsgu2emEQSJ7JV-26" value="Makes an Appointment" style="text;html=1;align=center;verticalAlign=middle;whiteSpace=wrap;rounded=0;" vertex="1" parent="1">
          <mxGeometry x="610" y="70" width="190" height="30" as="geometry" />
        </mxCell>
      </root>
    </mxGraphModel>
  </diagram>
</mxfile>
